<svg width="26" height="25" viewBox="0 0 26 25" fill="none" xmlns="http://www.w3.org/2000/svg">
<path d="M11.2048 24.004C10.9439 24.7614 10.1066 25.1731 9.34887 24.9284L8.61565 24.6912C7.85189 24.4443 7.42363 23.625 7.65998 22.8582L7.67544 22.8082C7.91143 22.043 7.57553 21.0401 6.92374 20.568L7.17067 20.747C6.51923 20.2752 5.4531 20.2689 4.79981 20.7256L4.75721 20.7553C4.09902 21.2154 3.17841 21.0589 2.70979 20.4175L2.2559 19.7967C1.78354 19.1504 1.92641 18.2324 2.56427 17.755L2.60612 17.7238C3.2489 17.2427 3.56854 16.2353 3.31974 15.4715L3.41399 15.7609C3.16518 14.9979 2.30565 14.3689 1.50757 14.3561L1.45555 14.3553C0.651438 14.3422 0 13.6768 0 12.8837V12.1162C0 11.3164 0.657467 10.6577 1.45555 10.6446L1.50757 10.6438C2.31168 10.6311 3.1648 10.0028 3.41399 9.23902L3.31974 9.52839C3.56856 8.76574 3.24397 7.75351 2.60612 7.27612L2.56427 7.24497C1.92149 6.76381 1.78729 5.84427 2.2559 5.20322L2.70979 4.58245C3.18253 3.93579 4.10388 3.7879 4.75721 4.24467L4.79981 4.27432C5.45801 4.73446 6.51889 4.72545 7.17067 4.2533L6.92374 4.43195C7.57479 3.96017 7.91184 2.95845 7.67544 2.19168L7.65998 2.14214C7.42399 1.37649 7.85828 0.553433 8.61565 0.308737L9.34887 0.0715341C10.113 -0.175427 10.9435 0.237424 11.2048 0.996297L11.2217 1.04509C11.4826 1.80285 12.3463 2.41689 13.1527 2.41689H12.8473C13.6525 2.41689 14.5166 1.80401 14.7778 1.04509L14.7948 0.996297C15.0557 0.238538 15.893 -0.17321 16.6507 0.0715341L17.3839 0.308737C18.1481 0.555699 18.5763 1.37499 18.3396 2.14214L18.3245 2.19168C18.0881 2.95733 18.424 3.95979 19.0759 4.43195L18.8289 4.2533C19.4804 4.7247 20.5465 4.73108 21.1998 4.27432L21.2424 4.24467C21.9006 3.78452 22.8212 3.94141 23.2898 4.58245L23.7437 5.20322C24.2161 5.84989 24.0736 6.76753 23.4353 7.24497L23.3935 7.27612C22.7507 7.75728 22.4311 8.76502 22.6802 9.52839L22.5856 9.23902C22.8344 10.0021 23.694 10.6311 24.492 10.6438L24.5441 10.6446C25.3482 10.6577 26 11.3231 26 12.1162V12.8837C26 13.6836 25.3421 14.3422 24.5441 14.3553L24.492 14.3561C23.6879 14.3692 22.8348 14.9975 22.5856 15.7609L22.6802 15.4715C22.4314 16.2346 22.7556 17.2464 23.3935 17.7238L23.4353 17.755C24.0781 18.2361 24.2123 19.1557 23.7437 19.7967L23.2898 20.4175C22.8174 21.0641 21.8957 21.212 21.2424 20.7553L21.1998 20.7256C20.5416 20.2655 19.4807 20.2749 18.8289 20.747L19.0759 20.568C18.4248 21.0398 18.0878 22.0415 18.3245 22.8082L18.3396 22.8582C18.576 23.6234 18.1417 24.4465 17.3839 24.6912L16.6507 24.9284C15.8866 25.1754 15.0564 24.7629 14.7948 24.004L14.7778 23.9548C14.517 23.1971 13.6533 22.583 12.8473 22.583H13.1527C12.347 22.583 11.483 23.1959 11.2217 23.9548L11.2048 24.004ZM13 18.7925C16.4909 18.7925 19.3204 15.9754 19.3204 12.5001C19.3204 9.02468 16.4907 6.20726 13 6.20726C9.50907 6.20726 6.67913 9.02478 6.67913 12.5001C6.67913 15.9756 9.50917 18.7925 13 18.7925Z" fill="#949494"/>
</svg>
